<svg width="72" height="72" viewBox="0 0 72 72" fill="none" xmlns="http://www.w3.org/2000/svg">
<g clip-path="url(#clip0_1200_2)">
<path d="M36 72C55.8823 72 72 55.8823 72 36C72 16.1177 55.8823 0 36 0C16.1177 0 0 16.1177 0 36C0 55.8823 16.1177 72 36 72Z" fill="#FFC444"/>
<path d="M55.0949 6.97363H16.9023V42.8746H55.0949V6.97363Z" fill="#F1F3F7"/>
<path d="M15.2763 27.5689C15.2763 27.5265 15.0075 23.3253 19.6755 22.0098L19.8877 22.7878C15.8704 23.9194 16.0684 27.3567 16.0826 27.5123L15.2763 27.5689Z" fill="#646B79"/>
<path d="M15.6732 26.9326C14.8103 26.9326 14.1172 27.6257 14.1172 28.4886V33.3122C14.1172 34.1751 14.8103 34.8682 15.6732 34.8682C16.536 34.8682 17.2292 34.1751 17.2292 33.3122V28.4886C17.2292 27.6257 16.536 26.9326 15.6732 26.9326Z" fill="#646B79"/>
<path d="M56.7247 27.5689C56.7247 27.5265 56.9934 23.3253 52.3255 22.0098L52.1133 22.7878C56.1306 23.9194 55.9325 27.3567 55.9184 27.5123L56.7247 27.5689Z" fill="#646B79"/>
<path d="M56.3255 26.9326C57.1884 26.9326 57.8815 27.6257 57.8815 28.4886V33.3122C57.8815 34.1751 57.1884 34.8682 56.3255 34.8682C55.4627 34.8682 54.7695 34.1751 54.7695 33.3122V28.4886C54.7695 27.6257 55.4627 26.9326 56.3255 26.9326Z" fill="#646B79"/>
<path d="M51.9001 14.6259C51.688 12.7163 50.0612 11.2734 48.1516 11.2734H23.8499C21.9261 11.2734 20.3135 12.7163 20.1013 14.6259L18.9414 24.7398H53.0601L51.9001 14.6259Z" fill="#D54232"/>
<path d="M53.1993 25.5751C53.1003 23.9625 51.7847 22.6611 50.257 22.6611H21.7258C20.1981 22.6611 18.8826 23.9625 18.7836 25.5751L17.7227 42.3515H54.246L53.1993 25.5751Z" fill="#F0582F"/>
<path d="M49.5248 25.6602H22.4789C21.3755 25.6602 20.4844 26.6645 20.4844 27.9234V34.8688H51.5193V27.9234C51.5193 26.6786 50.6282 25.6602 49.5248 25.6602Z" fill="#4F5565"/>
<path d="M49.5086 33.8076H22.4909C20.553 33.8076 18.9688 35.3636 18.9688 37.2732V41.4461H53.0167V37.2732C53.0308 35.3495 51.4465 33.8076 49.5086 33.8076Z" fill="#E24723"/>
<path d="M56.4271 49.5654H15.5752C14.8114 49.5654 14.2031 50.1595 14.2031 50.881V57.1615C14.2031 57.8971 14.8114 58.477 15.5752 58.477H56.4129C57.1768 58.477 57.7851 57.8829 57.7851 57.1615V50.881C57.7992 50.1595 57.1768 49.5654 56.4271 49.5654Z" fill="#D54232"/>
<path d="M45.0818 37.9092H26.9192C25.4763 37.9092 24.3164 39.0974 24.3164 40.5544V49.5791H47.6846V40.5544C47.6846 39.0832 46.5247 37.9092 45.0818 37.9092Z" fill="#DEDEDF"/>
<path d="M27.5853 39.5928C27.2741 39.5928 27.0195 39.8474 27.0195 40.1727V48.1224C27.0195 48.4336 27.2741 48.7024 27.5853 48.7024C27.8965 48.7024 28.1512 48.4478 28.1512 48.1224V40.1727C28.1512 39.8474 27.8965 39.5928 27.5853 39.5928Z" fill="#646B79"/>
<path d="M30.3861 39.5928C30.0749 39.5928 29.8203 39.8474 29.8203 40.1727V48.1224C29.8203 48.4336 30.0749 48.7024 30.3861 48.7024C30.6973 48.7024 30.9519 48.4478 30.9519 48.1224V40.1727C30.9519 39.8474 30.7115 39.5928 30.3861 39.5928Z" fill="#646B79"/>
<path d="M33.2025 39.5928C32.8913 39.5928 32.6367 39.8474 32.6367 40.1727V48.1224C32.6367 48.4336 32.8913 48.7024 33.2025 48.7024C33.5137 48.7024 33.7683 48.4478 33.7683 48.1224V40.1727C33.7683 39.8474 33.5137 39.5928 33.2025 39.5928Z" fill="#646B79"/>
<path d="M36.0033 39.5928C35.6921 39.5928 35.4375 39.8474 35.4375 40.1727V48.1224C35.4375 48.4336 35.6921 48.7024 36.0033 48.7024C36.3145 48.7024 36.5691 48.4478 36.5691 48.1224V40.1727C36.5691 39.8474 36.3145 39.5928 36.0033 39.5928Z" fill="#646B79"/>
<path d="M38.8041 39.5928C38.4929 39.5928 38.2383 39.8474 38.2383 40.1727V48.1224C38.2383 48.4336 38.4929 48.7024 38.8041 48.7024C39.1153 48.7024 39.3699 48.4478 39.3699 48.1224V40.1727C39.3699 39.8474 39.1153 39.5928 38.8041 39.5928Z" fill="#646B79"/>
<path d="M41.6166 39.5928C41.3054 39.5928 41.0508 39.8474 41.0508 40.1727V48.1224C41.0508 48.4336 41.3054 48.7024 41.6166 48.7024C41.9278 48.7024 42.1824 48.4478 42.1824 48.1224V40.1727C42.1824 39.8474 41.9278 39.5928 41.6166 39.5928Z" fill="#646B79"/>
<path d="M44.4174 39.5928C44.1062 39.5928 43.8516 39.8474 43.8516 40.1727V48.1224C43.8516 48.4336 44.1062 48.7024 44.4174 48.7024C44.7286 48.7024 44.9832 48.4478 44.9832 48.1224V40.1727C44.9832 39.8474 44.7286 39.5928 44.4174 39.5928Z" fill="#646B79"/>
<path d="M20.0993 41.4463C17.5955 41.4463 15.5586 43.4832 15.5586 45.987V49.5799H24.3146V41.4463H20.0993Z" fill="#F0582F"/>
<path d="M19.8619 48.0373C20.8385 48.0373 21.6301 47.2457 21.6301 46.2691C21.6301 45.2926 20.8385 44.501 19.8619 44.501C18.8854 44.501 18.0938 45.2926 18.0938 46.2691C18.0938 47.2457 18.8854 48.0373 19.8619 48.0373Z" fill="#FFFFFC"/>
<path d="M51.9692 41.4463C54.473 41.4463 56.5099 43.4832 56.5099 45.987V49.5799H47.7539V41.4463H51.9692Z" fill="#F0582F"/>
<path d="M52.1393 48.0373C53.1158 48.0373 53.9074 47.2457 53.9074 46.2691C53.9074 45.2926 53.1158 44.501 52.1393 44.501C51.1627 44.501 50.3711 45.2926 50.3711 46.2691C50.3711 47.2457 51.1627 48.0373 52.1393 48.0373Z" fill="#FFFFFC"/>
<path d="M43.8799 53.2996L45.2096 51.5738C45.3227 51.4182 45.2237 51.2061 45.0257 51.2061H26.962C26.764 51.2061 26.665 51.4324 26.7781 51.5738L28.1078 53.2996C28.1502 53.3562 28.221 53.3844 28.2917 53.3844H43.696C43.7668 53.3844 43.8375 53.3562 43.8799 53.2996Z" fill="#393D47"/>
<path d="M24.8535 51.2061H22.0103C21.8123 51.2061 21.6991 51.4465 21.8405 51.588L23.3541 53.3137C23.3965 53.3703 23.4673 53.3986 23.5238 53.3986H26.1973C26.3954 53.3986 26.4944 53.1723 26.3812 53.0308L25.0515 51.3051C24.995 51.2343 24.9242 51.2061 24.8535 51.2061Z" fill="#393D47"/>
<path d="M46.9633 51.2914L45.6336 53.0171C45.5205 53.1727 45.6195 53.3849 45.8175 53.3849H48.491C48.5617 53.3849 48.6183 53.3566 48.6607 53.3L50.1601 51.5743C50.2874 51.4187 50.1884 51.1924 49.9904 51.1924H47.1472C47.0764 51.2065 47.0057 51.2348 46.9633 51.2914Z" fill="#393D47"/>
<path d="M43.8799 56.7654L45.2096 55.0397C45.3227 54.8841 45.2237 54.6719 45.0257 54.6719H26.962C26.764 54.6719 26.665 54.8982 26.7781 55.0397L28.1078 56.7654C28.1502 56.822 28.221 56.8503 28.2917 56.8503H43.696C43.7668 56.8503 43.8375 56.822 43.8799 56.7654Z" fill="#393D47"/>
<path d="M24.8535 54.6719H22.0103C21.8123 54.6719 21.6991 54.9123 21.8405 55.0538L23.3541 56.7795C23.3965 56.8361 23.4673 56.8644 23.5238 56.8644H26.1973C26.3954 56.8644 26.4944 56.6381 26.3812 56.4966L25.0515 54.7709C24.995 54.7002 24.9242 54.6719 24.8535 54.6719Z" fill="#393D47"/>
<path d="M46.9633 54.7572L45.6336 56.483C45.5205 56.6386 45.6195 56.8507 45.8175 56.8507H48.491C48.5617 56.8507 48.6183 56.8224 48.6607 56.7659L50.1601 55.0401C50.2874 54.8845 50.1884 54.6582 49.9904 54.6582H47.1472C47.0764 54.6723 47.0057 54.7006 46.9633 54.7572Z" fill="#393D47"/>
<path d="M16.4805 58.4912V64.404C16.4805 64.7435 16.7634 65.0264 17.1029 65.0264H21.007C21.3465 65.0264 21.6294 64.7435 21.6294 64.404V58.4912H16.4805Z" fill="#646B79"/>
<path d="M50.3711 58.4912V64.404C50.3711 64.7435 50.654 65.0264 50.9935 65.0264H54.8976C55.2371 65.0264 55.52 64.7435 55.52 64.404V58.4912H50.3711Z" fill="#646B79"/>
<path d="M36.0006 58.4912H21.6289L21.7987 60.7403L24.2034 60.0472H30.1586L34.2607 61.7588H36.0006H37.7405L41.8427 60.0472H47.7979L50.2026 60.7403L50.3723 58.4912H36.0006Z" fill="#333842"/>
</g>
<defs>
<clipPath id="clip0_1200_2">
<rect width="72" height="72" fill="white"/>
</clipPath>
</defs>
</svg>
